HIERARCHY
ROOT Hips
{
	OFFSET 0.000000 0.000000 0.000000
	CHANNELS 6 Xposition Yposition Zposition Zrotation Yrotation Xrotation
	JOINT LHipJoint
	{
		OFFSET 0.000000 0.000000 0.000000
		CHANNELS 3 Zrotation Yrotation Xrotation
		JOINT LeftUpLeg
		{
			OFFSET 1.363060 -1.794630 0.839290
			CHANNELS 3 Zrotation Yrotation Xrotation
			JOINT LeftLeg
			{
				OFFSET 2.448110 -6.726130 0.000000
				CHANNELS 3 Zrotation Yrotation Xrotation
				JOINT LeftFoot
				{
					OFFSET 2.562200 -7.039590 0.000000
					CHANNELS 3 Zrotation Yrotation Xrotation
					JOINT LeftToeBase
					{
						OFFSET 0.157640 -0.433110 2.322550
						CHANNELS 3 Zrotation Yrotation Xrotation
						End Site
						{
							OFFSET 0.000000 0.000000 0.000000
						}
					}
				}
			}
		}
	}
	JOINT RHipJoint
	{
		OFFSET 0.000000 0.000000 0.000000
		CHANNELS 3 Zrotation Yrotation Xrotation
		JOINT RightUpLeg
		{
			OFFSET -1.305520 -1.794630 0.839290
			CHANNELS 3 Zrotation Yrotation Xrotation
			JOINT RightLeg
			{
				OFFSET -2.542530 -6.985550 0.000000
				CHANNELS 3 Zrotation Yrotation Xrotation
				JOINT RightFoot
				{
					OFFSET -2.568260 -7.056230 0.000000
					CHANNELS 3 Zrotation Yrotation Xrotation
					JOINT RightToeBase
					{
						OFFSET -0.164730 -0.452590 2.363150
						CHANNELS 3 Zrotation Yrotation Xrotation
						End Site
						{
							OFFSET 0.000000 0.000000 0.000000
						}
					}
				}
			}
		}
	}
	JOINT LowerBack
	{
		OFFSET 0.000000 0.000000 0.000000
		CHANNELS 3 Zrotation Yrotation Xrotation
		JOINT Spine
		{
			OFFSET 0.028270 2.035590 -0.193380
			CHANNELS 3 Zrotation Yrotation Xrotation
			JOINT Spine1
			{
				OFFSET 0.056720 2.048850 -0.042750
				CHANNELS 3 Zrotation Yrotation Xrotation
				JOINT Neck
				{
					OFFSET 0.000000 0.000000 0.000000
					CHANNELS 3 Zrotation Yrotation Xrotation
					JOINT Neck1
					{
						OFFSET -0.054170 1.746240 0.172020
						CHANNELS 3 Zrotation Yrotation Xrotation
						JOINT Head
						{
							OFFSET 0.104070 1.761360 -0.123970
							CHANNELS 3 Zrotation Yrotation Xrotation
							End Site
							{
								OFFSET 0.000000 0.000000 0.000000
							}
						}
					}
				}
				JOINT LeftShoulder
				{
					OFFSET 0.000000 0.000000 0.000000
					CHANNELS 3 Zrotation Yrotation Xrotation
					JOINT LeftArm
					{
						OFFSET 3.362410 1.200890 -0.311210
						CHANNELS 3 Zrotation Yrotation Xrotation
						JOINT LeftForeArm
						{
							OFFSET 4.983000 -0.000000 -0.000000
							CHANNELS 3 Zrotation Yrotation Xrotation
							JOINT LeftHand
							{
								OFFSET 3.483560 -0.000000 -0.000000
								CHANNELS 3 Zrotation Yrotation Xrotation
								JOINT LeftFingerBase
								{
									OFFSET 0.000000 0.000000 0.000000
									CHANNELS 3 Zrotation Yrotation Xrotation
									JOINT LeftHandIndex1
									{
										OFFSET 0.715260 -0.000000 -0.000000
										CHANNELS 3 Zrotation Yrotation Xrotation
										End Site
										{
											OFFSET 0.000000 0.000000 0.000000
										}
									}
								}
								JOINT LThumb
								{
									OFFSET 0.000000 0.000000 0.000000
									CHANNELS 3 Zrotation Yrotation Xrotation
									End Site
									{
										OFFSET 0.000000 0.000000 0.000000
									}
								}
							}
						}
					}
				}
				JOINT RightShoulder
				{
					OFFSET 0.000000 0.000000 0.000000
					CHANNELS 3 Zrotation Yrotation Xrotation
					JOINT RightArm
					{
						OFFSET -3.136600 1.374050 -0.404650
						CHANNELS 3 Zrotation Yrotation Xrotation
						JOINT RightForeArm
						{
							OFFSET -5.241900 -0.000000 -0.000000
							CHANNELS 3 Zrotation Yrotation Xrotation
							JOINT RightHand
							{
								OFFSET -3.444170 -0.000000 -0.000000
								CHANNELS 3 Zrotation Yrotation Xrotation
								JOINT RightFingerBase
								{
									OFFSET 0.000000 0.000000 0.000000
									CHANNELS 3 Zrotation Yrotation Xrotation
									JOINT RightHandIndex1
									{
										OFFSET -0.622530 -0.000000 -0.000000
										CHANNELS 3 Zrotation Yrotation Xrotation
										End Site
										{
											OFFSET 0.000000 0.000000 0.000000
										}
									}
								}
								JOINT RThumb
								{
									OFFSET 0.000000 0.000000 0.000000
									CHANNELS 3 Zrotation Yrotation Xrotation
									End Site
									{
										OFFSET 0.000000 0.000000 0.000000
									}
								}
							}
						}
					}
				}
			}
		}
	}
}
MOTION
Frames: 6
Frame Time: 0.008333
0.001240 -0.000733 0.098728 -0.031825 -0.221199 0.098220 -0.078332 -0.034058 -0.044301 0.227109 0.010968 0.049103 -0.372351 -0.465638 -1.610156 -0.059947 0.365025 0.436728 0.000621 -0.310387 -0.852703 0.029608 -0.014322 0.045319 -0.067114 -0.037313 0.443376 0.071772 0.125647 -0.376348 -0.015878 0.085025 0.197417 -0.057163 -0.304851 0.856036 0.047759 0.109412 -0.050519 -0.074703 0.143306 -0.021281 -0.083580 0.070752 0.029405 0.032453 -0.014568 -0.067949 0.004395 -0.021013 0.143469 -0.006157 -0.001808 0.052870 0.001858 0.010302 -0.000278 0.011559 0.098716 -0.083630 -0.088397 0.128911 0.033112 -0.008452 0.015952 -0.127528 0.187150 -0.934834 -0.404492 0.000000 0.000000 0.000000 0.358513 -1.019787 0.033383 -0.002908 0.009890 0.005509 0.007667 0.072567 0.036991 -0.098927 0.129557 -0.048548 -0.000371 0.009559 0.022357 -0.139288 -0.178715 0.001638 -0.000000 0.000000 0.000000 -0.104498 -0.172563 -0.113253
-1.030421 -1.042962 -4.312124 -0.171259 -1.499901 -0.838650 -1.592450 0.102828 0.081130 -0.545081 -0.624007 -1.862400 -0.604892 -0.858066 -3.547862 -0.211249 0.815705 0.236096 0.034747 -0.767431 -0.620995 -0.064630 -0.066432 -0.101615 -0.134065 0.117944 0.416613 0.075497 0.767214 -0.506300 0.132223 -0.118176 -0.292415 0.060633 -0.387570 0.875632 0.465677 0.258026 0.064046 0.015109 0.331038 0.093994 0.019060 0.105276 -0.267628 -0.020170 -0.118902 -0.186905 0.144782 -0.108752 0.278141 0.116487 -0.503881 -0.358086 -0.168010 -0.425576 -0.111260 0.572073 0.507509 -1.880730 -0.836132 -0.531953 -0.228818 -0.111665 0.090689 -1.554959 -0.164323 0.594503 -1.655363 -0.084075 0.000000 0.000000 3.996907 0.055209 -0.740795 0.266224 1.041610 -0.076663 1.293512 0.261563 -2.176683 1.377432 -0.998364 -0.251076 0.465416 0.098469 0.641645 3.922447 -1.671222 -0.192637 -0.001847 0.000000 0.000000 2.221510 -0.221972 2.128803
-1.564759 -1.802929 -6.289921 -0.077988 -1.764879 -0.847751 -1.990802 0.679878 0.450905 -0.129711 -0.276693 -1.551677 -0.597248 -0.455179 -3.672129 -0.149766 1.784894 1.341991 0.280362 -0.697621 0.769772 0.454809 0.060849 -0.034333 0.611624 0.660110 0.769555 0.195144 1.491047 -0.705429 0.358065 -0.545012 -0.386390 0.229834 -0.421342 1.237924 0.802747 0.387550 0.183961 0.085652 0.456148 0.085119 0.033635 0.149874 -0.372821 0.111980 -0.093340 -0.223170 0.230048 -0.300113 0.172203 0.293481 -0.851336 -0.836814 -0.259376 -0.797168 -0.175497 2.071616 0.629426 -2.188003 -0.989206 -1.333547 -0.574750 -0.248053 0.080472 -4.006346 -0.698392 0.156823 -3.857307 -0.140166 0.000000 0.000000 7.923630 0.309342 -1.421078 0.295806 1.647247 -0.160479 3.965190 0.653807 -3.001578 4.457581 -0.680665 0.836052 0.921522 0.230683 1.597740 11.913735 -0.347097 3.163170 0.090535 0.000000 0.000000 9.398127 3.039276 10.577308
-2.041416 -2.641618 -8.732838 -0.302145 -2.373474 -1.408233 -2.856334 0.663695 0.187984 -1.205568 -1.122029 -4.157287 -1.143707 -1.041164 -6.482563 -0.388085 1.384380 0.844567 0.266795 -1.274233 0.059936 0.217023 -0.091423 -0.330129 0.376448 0.692110 0.339930 0.209825 1.958576 -1.292713 0.544889 -1.122730 -0.415860 0.361959 -0.551454 0.862727 0.884007 0.514365 0.262814 0.086475 0.492702 0.087727 0.029789 0.199641 -0.373810 0.055825 -0.171204 -0.518859 0.155037 -0.428440 -0.072045 0.410377 -1.171914 -1.669152 -0.568984 -1.436528 -0.324835 0.602961 -0.305423 -3.989052 -1.288217 -2.139307 -0.931160 -0.375505 0.138478 -5.013084 -0.282084 1.385569 -5.541643 -0.120377 0.000000 0.000000 12.790254 0.697338 -2.516133 0.160069 1.973938 -0.270588 6.494476 0.516917 -3.921540 6.067072 -1.341988 0.239589 1.054262 0.273689 1.319767 12.161853 -1.026692 1.120670 0.054190 0.000000 0.000000 10.306898 2.620509 9.867494
-1.664325 -2.858230 -7.507894 -0.799854 -2.028969 -1.124542 -3.068543 0.795938 0.279826 -0.354700 -0.612554 -3.254067 -1.257068 -0.602779 -6.672196 -0.151239 1.980784 1.681341 0.459472 -0.968607 0.060318 0.334203 -0.114786 -0.351182 0.592508 0.776039 -0.296692 0.393801 2.110543 -2.007432 0.762283 -2.035933 -0.087572 0.441948 -0.923084 0.695526 0.789139 0.438561 -0.237475 -0.062673 0.310279 -0.204006 -0.113483 0.153604 -0.830151 -0.233328 -0.510553 -1.021832 0.030209 -0.761474 -0.115987 0.322764 -1.253762 -1.762327 -0.275763 -1.281146 -0.201070 1.794606 -1.039756 -2.345564 -0.889348 -2.566177 -1.118383 -0.370784 0.136639 -5.379044 -0.347256 0.666213 -7.161198 -0.101623 0.000000 0.000000 15.280847 0.833586 -1.688992 -0.403343 1.792718 -0.193138 12.738880 0.662623 -1.110350 8.719733 -2.309310 0.378547 1.074764 0.202713 0.459219 6.347150 -4.423500 -2.321546 -0.020936 0.000000 0.000000 9.937791 1.843527 7.574970
-1.624547 -2.597245 -3.711661 -0.833096 -1.297876 -1.311212 -3.710277 0.696593 0.271074 -0.343689 -0.824591 -4.010612 -1.649025 -0.768348 -8.487644 -0.148658 2.320816 1.952627 0.568512 -0.799526 -0.153715 0.538984 -0.105633 -0.331556 0.735516 0.757050 -1.120925 0.587363 2.291802 -2.319470 1.090730 -2.585093 0.414423 0.520541 -1.272464 1.022006 0.754017 0.370104 -0.621742 -0.091698 0.303270 -0.326321 -0.139986 0.131072 -1.513221 -0.372171 -0.777882 -1.141828 0.258213 -0.763231 0.496821 0.492440 -1.378664 -1.758247 -0.083524 -1.191939 -0.038371 3.003261 -2.071001 -1.760939 -0.277768 -2.188360 -1.001914 -0.216360 0.128531 -4.946723 -0.299237 -0.384328 -6.665355 0.123633 0.000000 0.000000 17.420784 3.235135 1.952657 -0.350929 2.105043 -0.021717 20.069288 0.763605 0.873369 9.875569 -4.827049 0.103295 1.152910 0.216400 0.633121 9.670128 -6.693252 -2.123539 0.000048 0.000000 0.000000 12.795473 3.134846 9.312704
